<svg xmlns="http://www.w3.org/2000/svg" viewBox="0 0 1254 1254" width="1254" height="1254" style="shape-rendering:geometricPrecision; text-rendering:geometricPrecision; image-rendering:optimizeQuality; fill-rule:evenodd; clip-rule:evenodd">
<rect x="0" y="0" width="1254" height="1254" fill="#f6f6f6"/>
<g><path fill="#fefefe" stroke="#fefefe" stroke-width="0.5" d="M 34.05,0.26 c 11.33,0.02 22.66,0.03 33.99,0.05 c -0.21,11.23 -0.27,22.47 -0.2,33.7 c -11.06,0.08 -22.13,0.03 -33.19,-0.15 c -0.43,-0.36 -0.6,-0.81 -0.53,-1.37 c -0.1,-10.75 -0.13,-21.49 -0.07,-32.23 Z M 237.09,0.33 c 11.33,0 22.65,-0.01 33.98,-0.01 c 0.05,10.39 0.05,20.79 -0.01,31.18 c -0.1,0.88 0.11,1.67 0.64,2.37 c 10.81,0.1 21.61,0.27 32.42,0.52 c 0.58,0.59 0.84,1.31 0.76,2.15 c 0.09,9.66 0.11,19.32 0.06,28.98 c 0,1.69 0.84,2.56 2.52,2.6 c 10.44,0 20.89,-0.02 31.33,-0.08 c 0.01,10.78 -0.02,21.56 -0.09,32.35 c 0.1,0.5 -0.05,0.9 -0.46,1.2 c -11.1,0.23 -22.2,0.37 -33.3,0.41 c 0.02,-11.13 0,-22.25 -0.05,-33.36 c -0.32,-0.49 -0.78,-0.72 -1.36,-0.71 c -10.57,0.16 -21.12,0.05 -31.66,-0.34 c -0.55,-0.6 -0.77,-1.32 -0.68,-2.15 c 0.01,-10.29 -0.05,-20.57 -0.18,-30.84 c -0.41,-0.43 -0.91,-0.64 -1.51,-0.63 c -10.77,0.04 -21.55,0.1 -32.32,0.17 c 0.08,-11.27 0.05,-22.54 -0.09,-33.81 Z M 304.94,0.34 c 11.32,0.01 22.63,0.02 33.95,0.03 c -0.1,11.22 -0.11,22.44 -0.03,33.66 c -11.06,0.07 -22.11,0 -33.16,-0.19 c -0.43,-0.34 -0.62,-0.8 -0.58,-1.35 c -0.18,-10.72 -0.25,-21.44 -0.18,-32.15 Z M 372.99,0.34 c 10.99,0.03 21.99,0.05 32.98,0.07 c 0.23,10.4 0.33,20.79 0.31,31.19 c 0.05,1.87 -0.88,2.68 -2.77,2.44 c -9.34,-0.05 -18.68,-0.05 -28.03,-0.01 c -1.34,0.27 -2.23,-0.22 -2.69,-1.45 c -0.04,-10.75 0.03,-21.49 0.2,-32.24 Z M 440.14,0.22 c 11.27,0.02 22.55,0.04 33.82,0.05 c 0.14,10.41 0.18,20.81 0.12,31.21 c -0.26,1.84 0.52,2.74 2.34,2.7 c 10.01,-0.14 20.02,-0.14 30.03,0 c 0.54,-0.05 0.98,0.14 1.32,0.55 c 0.21,10.85 0.36,21.7 0.45,32.55 c 0.6,0.65 1.34,0.92 2.23,0.82 c 10,-0.06 20,-0.04 30,0.08 c 0.53,-0.06 0.95,0.12 1.26,0.55 c 0.15,10.24 0.28,20.49 0.4,30.74 c -0.04,0.83 0.2,1.58 0.71,2.23 c 10.97,0.28 21.95,0.39 32.95,0.31 c 0.13,10.81 0.13,21.61 -0.01,32.42 c 0.04,0.53 -0.14,0.95 -0.55,1.27 c -11.09,0.12 -22.19,0.16 -33.28,0.19 c 0.19,-11.07 0.17,-22.13 -0.06,-33.19 c -0.25,-0.54 -0.68,-0.84 -1.28,-0.89 c -10.01,0.16 -20.03,0.18 -30.04,0.07 c -1.66,0.09 -2.46,-0.7 -2.4,-2.36 c -0.12,-10.3 -0.16,-20.6 -0.12,-30.89 c -0.35,-0.5 -0.84,-0.76 -1.45,-0.77 c -10.87,0.13 -21.73,0.22 -32.59,0.26 c 0.05,-11.09 0.18,-22.18 0.39,-33.26 c 0.31,-0.4 0.72,-0.55 1.22,-0.48 c 10.81,-0.03 21.63,-0.1 32.44,-0.2 Z M 507.98,0.2 c 11.35,0.05 22.7,0.09 34.05,0.14 c -0.05,10.73 -0.1,21.46 -0.13,32.18 c -0.02,0.6 0.2,1.07 0.67,1.42 c 11.04,0.14 22.1,0.17 33.16,0.1 c 0.14,11.34 0.18,22.68 0.15,34.02 c -11.02,-0.01 -22.03,-0.17 -33.03,-0.48 c -0.62,-0.55 -0.87,-1.25 -0.77,-2.1 c 0.02,-10.27 -0.06,-20.54 -0.24,-30.78 c -0.34,-0.45 -0.78,-0.69 -1.34,-0.72 c -10,0.06 -20.01,0.07 -30.02,0.02 c -1.76,0.05 -2.5,-0.81 -2.23,-2.58 c -0.1,-10.41 -0.19,-20.82 -0.27,-31.22 Z M 643.03,0.4 c 11.31,-0.03 22.63,-0.07 33.94,-0.11 c 0.05,11.24 -0.03,22.48 -0.23,33.71 c -11.19,0.04 -22.38,0.05 -33.57,0.03 c 0.13,-11.21 0.08,-22.42 -0.14,-33.63 Z M 845.96,0.35 c 11.38,-0.05 22.75,-0.11 34.13,-0.16 c -0.04,10.77 -0.04,21.54 -0.02,32.31 c -0.07,0.58 0.12,1.05 0.55,1.42 c 11.12,0.2 22.25,0.23 33.38,0.09 c 0,11.36 0.01,22.72 0.03,34.08 c -11.06,-0.04 -22.11,-0.22 -33.15,-0.54 c -0.54,-0.59 -0.76,-1.3 -0.66,-2.11 c -0.04,-10.26 -0.17,-20.5 -0.4,-30.73 c -0.64,-0.61 -1.4,-0.86 -2.29,-0.75 c -10.26,0.19 -20.51,0.12 -30.74,-0.24 c -0.52,-0.65 -0.73,-1.4 -0.63,-2.24 c 0.05,-10.38 -0.01,-20.75 -0.2,-31.13 Z M 914.04,0.32 c 11.28,-0.03 22.57,-0.06 33.85,-0.1 c -0.19,11.07 -0.16,22.12 0.1,33.17 c 0.38,0.46 0.87,0.69 1.48,0.67 c 10,-0.01 20,0 30,0.03 c 1.49,0.06 2.19,0.85 2.07,2.37 c -0.12,10.07 -0.17,20.13 -0.14,30.19 c -0.41,1.52 -1.63,1.23 -2.92,1.32 c -9.77,0.1 -19.54,0.01 -29.31,-0.29 c -0.89,-0.41 -1.35,-1.11 -1.39,-2.1 c 0.01,-9.67 0,-19.34 -0.04,-29.01 c 0.22,-1.72 -0.53,-2.54 -2.25,-2.48 c -10.5,-0.05 -20.99,-0.08 -31.49,-0.08 c -0.03,-11.23 -0.02,-22.46 0.04,-33.69 Z M 981.97,0.36 c 11,-0.02 21.99,-0.03 32.98,-0.05 c 0.24,11.27 0.2,22.54 -0.13,33.81 c -10.88,-0.07 -21.77,-0.11 -32.65,-0.15 c -0.37,-11.2 -0.43,-22.41 -0.2,-33.61 Z M 1049.11,0.4 c 11.31,-0.01 22.62,-0.02 33.94,-0.03 c -0.05,10.72 -0.05,21.43 -0.02,32.15 c -0.06,0.59 0.14,1.07 0.58,1.44 c 10.28,0.09 20.55,0.16 30.84,0.21 c 0.84,-0.08 1.58,0.16 2.21,0.7 c 0.29,10.19 0.41,20.39 0.38,30.62 c -0.05,1.68 0.77,2.54 2.45,2.56 c 10.23,-0.07 20.46,0.03 30.67,0.3 c 0.57,0.61 0.81,1.34 0.72,2.19 c 0.01,9.63 0.1,19.26 0.28,28.89 c -0.01,1.61 0.76,2.48 2.31,2.63 c 10.5,0 21,-0.03 31.5,-0.08 c -0.14,7.5 -0.16,15 -0.05,22.51 c -0.03,3.57 0.11,7.14 0.44,10.68 c 0.29,0.43 0.69,0.65 1.2,0.68 c 9.99,-0.02 19.98,0.01 29.97,0.08 c 1.47,0.12 2.13,0.93 1.96,2.42 c 0.04,9.44 0.07,18.87 0.09,28.31 c -0.09,1.87 -1.09,2.79 -2.98,2.78 c -9.38,-0.29 -18.76,-0.27 -28.14,0.06 c -1.55,0.21 -2.39,-0.45 -2.52,-1.98 c 0.1,-10 0.1,-20.01 -0.01,-30.01 c 0.06,-0.57 -0.12,-1.02 -0.56,-1.37 c -11.11,-0.35 -22.23,-0.42 -33.35,-0.19 c -0.03,-10.82 0,-21.64 0.08,-32.46 c -0.19,-1.43 -1.01,-2.04 -2.46,-1.84 c -9.7,0.19 -19.39,0.25 -29.09,0.17 c -1.66,0.09 -2.49,-0.69 -2.48,-2.34 c -0.04,-10.27 -0.1,-20.55 -0.19,-30.82 c -0.33,-0.47 -0.78,-0.69 -1.36,-0.66 c -10.77,0.04 -21.55,0.1 -32.32,0.17 c 0.08,-11.27 0.05,-22.54 -0.09,-33.81 Z M 1117,0.28 c 11.32,-0.01 22.65,-0.02 33.98,-0.03 c -0.08,11.05 -0.03,22.09 0.12,33.12 c 0.3,0.5 0.75,0.77 1.33,0.81 c 10.6,-0.19 21.18,-0.14 31.76,0.15 c 0.52,0.64 0.73,1.38 0.64,2.22 c 0.04,9.99 0.1,19.98 0.17,29.97 c -0.03,0.58 0.19,1.04 0.65,1.37 c 11.1,0.15 22.21,0.21 33.31,0.16 c -0.24,10.98 -0.44,21.95 -0.6,32.92 c -0.88,0.58 -1.86,0.83 -2.94,0.74 c -10.15,0.14 -20.3,0.22 -30.45,0.27 c 0.02,-10.47 -0.04,-20.93 -0.19,-31.39 c 0.27,-1.79 -0.49,-2.66 -2.27,-2.59 c -10.28,0.04 -20.55,-0.03 -30.83,-0.2 c -0.47,-0.29 -0.69,-0.72 -0.65,-1.28 c 0.12,-10.62 0.04,-21.22 -0.23,-31.81 c -0.31,-0.45 -0.75,-0.7 -1.3,-0.75 c -10.33,0.08 -20.67,0.1 -31,0.09 c -0.57,0.04 -0.99,-0.19 -1.27,-0.68 c -0.24,-11.02 -0.32,-22.05 -0.23,-33.09 Z M 1185.04,0.23 c 11.31,-0.01 22.62,-0.02 33.94,-0.02 c -0.27,11.28 -0.25,22.56 0.05,33.84 c -10.86,0 -21.71,-0.01 -32.56,-0.04 c -0.59,0.05 -1.06,-0.15 -1.42,-0.61 c -0.13,-11.05 -0.13,-22.11 -0.01,-33.17 Z"/></g></svg>
